# xmcd
#
# Track frame offsets:
#	150
#	11455
#	20900
#	33295
#	44040
#	56233
#	65707
#	78497
#	91553
#	103202
#	115179
#	124850
#	136033
#	147833
#	159897
#	171415
#	183582
#	195121
#	207982
#	219040
#	230189
#	241756
#	249525
#	260653
#
# Disc length: 3639 seconds
#
# Revision: 0
# Processed by: cddbd v1.5.2PL0 Copyright (c) Steve Scherf et al.
# Submitted via: EZCDAudioConverter 3.1.1.2
#
DISCID=530e3518
DTITLE=Jean Shepard - Songs Of A Love Affair/Heartaches And Tears
DYEAR=1900
DGENRE=Country
TTITLE0=A Passing Love Affair
TTITLE1=Shadows on the Wall
TTITLE2=Girls in Disgrace
TTITLE3=Over and Over
TTITLE4=Hello Old Broken Heart
TTITLE5=The Mysteries of Life
TTITLE6=Tell Me What I Want to Hear
TTITLE7=I'll Thank You All My Life
TTITLE8=Sad Singin' and Slow Ridin'
TTITLE9=Did I Turn Down a Better Deal
TTITLE10=I Married for Love
TTITLE11=It's Hard to Tell the Married From the Free
TTITLE12=How Long Does It Hurt (When a Heart Breaks)
TTITLE13=Leave Me Alone
TTITLE14=Go on With Your Dancing
TTITLE15=I Don't Remember
TTITLE16=Are You Certain
TTITLE17=Would You Be Satisfied
TTITLE18=So Wrong, So Fast
TTITLE19=Second Best
TTITLE20=I Lost You After All
TTITLE21=I'd Like to Know (Where People Go)
TTITLE22=If You Were Losing Him to Me
TTITLE23=Jealous Heart
EXTD=
EXTT0=
EXTT1=
EXTT2=
EXTT3=
EXTT4=
EXTT5=
EXTT6=
EXTT7=
EXTT8=
EXTT9=
EXTT10=
EXTT11=
EXTT12=
EXTT13=
EXTT14=
EXTT15=
EXTT16=
EXTT17=
EXTT18=
EXTT19=
EXTT20=
EXTT21=
EXTT22=
EXTT23=
PLAYORDER=
